<svg id="Layer_1" data-name="Layer 1" xmlns="http://www.w3.org/2000/svg" xmlns:xlink="http://www.w3.org/1999/xlink" width="281" height="386" viewBox="0 0 281 386">
  <defs>
    <style>
      .cls-1, .cls-7 {
        fill: none;
      }

      .cls-2 {
        clip-path: url(#clip-path);
      }

      .cls-3 {
        fill: #0654a5;
      }

      .cls-4, .cls-6 {
        fill: #f47721;
      }

      .cls-5 {
        fill: #f05925;
      }

      .cls-6 {
        fill-rule: evenodd;
      }

      .cls-7 {
        stroke: #fff;
        stroke-miterlimit: 10;
        stroke-width: 2.13px;
      }

      .cls-8 {
        fill: #0058a4;
      }

      .cls-9 {
        fill: #fff;
      }
    </style>
    <clipPath id="clip-path">
      <rect class="cls-1" width="281" height="386"/>
    </clipPath>
  </defs>
  <title>What are the benefits of Process Discovery</title>
  <g class="cls-2">
    <g>
      <g>
        <g>
          <path class="cls-3" d="M229.52,259a58.22,58.22,0,1,1,12.38-42.81A57.83,57.83,0,0,1,229.52,259Zm-77,3.06a50.44,50.44,0,1,0-18.64-33.8A50.11,50.11,0,0,0,152.55,262.05Z"/>
          <g>
            <rect class="cls-3" x="126.81" y="173.92" width="13.58" height="18.11" transform="translate(-92.74 173.16) rotate(-51.38)"/>
            <path class="cls-4" d="M77.7,123.4a3.17,3.17,0,0,0-4.48.26l-8.86,11.22a3.18,3.18,0,0,0,.6,4.44L122.7,187a3.17,3.17,0,0,0,4.47-.25L136,175.49a3.18,3.18,0,0,0-.6-4.44Z"/>
            <path class="cls-3" d="M119.58,187.41c-.1.12.12.46.47.75l3.06,2.5c.36.29.73.44.83.32l15.63-19.77c.1-.12-.11-.45-.47-.75L136,168c-.36-.3-.73-.44-.83-.32Z"/>
          </g>
        </g>
        <path class="cls-1" d="M148.15,282.71v-2a70.06,70.06,0,0,1-6.7-4.73c-1-.82-2-1.67-3-2.53v9.29Z"/>
        <polygon class="cls-3" points="140.74 347.32 136.57 333.1 109.29 333.1 105.67 347.32 140.74 347.32"/>
        <circle class="cls-1" cx="123.29" cy="314.26" r="0.97"/>
        <path class="cls-3" d="M204.28,301.09h-3.57v17.54a7.34,7.34,0,0,1-7.33,7.34H139.24a3.57,3.57,0,0,1,3.43,2.56L144,333.1h49.36a14.5,14.5,0,0,0,14.48-14.48V297.52A3.57,3.57,0,0,1,204.28,301.09Z"/>
        <path class="cls-3" d="M42.3,293.95h3.57v-64a7.34,7.34,0,0,1,7.33-7.34h62.61a68.25,68.25,0,0,1,.37-7.14h-63a14.5,14.5,0,0,0-14.48,14.48v67.61A3.57,3.57,0,0,1,42.3,293.95Z"/>
        <path class="cls-3" d="M106.52,326H53.21a7.34,7.34,0,0,1-7.33-7.34V301.09H42.3a3.57,3.57,0,0,1-3.57-3.57v21.11A14.5,14.5,0,0,0,53.21,333.1h48.71l1.14-4.45A3.57,3.57,0,0,1,106.52,326Z"/>
        <path class="cls-3" d="M200.71,293.95h3.57a3.57,3.57,0,0,1,3.57,3.57V286.61a68.07,68.07,0,0,1-7.14,2.19Z"/>
        <path class="cls-3" d="M193.38,222.57a7.34,7.34,0,0,1,7.33,7.34V259.5a39.91,39.91,0,0,0,7.14-4.16V229.91a14.5,14.5,0,0,0-14.48-14.48H144.24a40.3,40.3,0,0,0-.63,7.14Z"/>
        <rect class="cls-3" x="45.88" y="293.95" width="154.83" height="7.14"/>
        <path class="cls-3" d="M42.3,301.09h3.57v-7.14H42.3a3.57,3.57,0,1,0,0,7.14Z"/>
        <path class="cls-3" d="M204.28,293.95h-3.57v7.14h3.57a3.57,3.57,0,1,0,0-7.14Z"/>
        <path class="cls-3" d="M123.29,322.38a8.12,8.12,0,1,0-8.12-8.12A8.12,8.12,0,0,0,123.29,322.38Zm0-9.09a1,1,0,1,1-1,1A1,1,0,0,1,123.29,313.29Z"/>
        <polygon class="cls-3" points="140.74 347.32 105.67 347.32 109.29 333.1 101.92 333.1 98.28 347.4 148.21 347.4 144.01 333.1 136.57 333.1 140.74 347.32"/>
        <path class="cls-3" d="M139.24,326H106.52a3.57,3.57,0,0,0-3.46,2.69l-1.14,4.45H144l-1.35-4.58A3.57,3.57,0,0,0,139.24,326Z"/>
        <path class="cls-3" d="M149.12,350.89a3.57,3.57,0,0,1-3.57,3.57H101.07A3.57,3.57,0,0,1,97.61,350l.67-2.61H91.86a3.57,3.57,0,1,0,0,7.14h62.72a3.57,3.57,0,1,0,0-7.14h-6.36l.61,2.06A3.57,3.57,0,0,1,149.12,350.89Z"/>
        <path class="cls-3" d="M97.61,350a3.57,3.57,0,0,0,3.46,4.46h44.48a3.57,3.57,0,0,0,3.27-5l-.61-2.06H98.27Z"/>
        <rect class="cls-5" x="80.71" y="254.49" width="7.18" height="28.22"/>
        <rect class="cls-5" x="97.57" y="260.74" width="7.18" height="21.97"/>
        <rect class="cls-5" x="114.43" y="252.56" width="7.18" height="30.14"/>
        <path class="cls-5" d="M138.47,273.42a68.51,68.51,0,0,1-7.18-7.48v16.77h7.18Z"/>
        <path class="cls-5" d="M138.47,273.42V264h-7.18v2A68.51,68.51,0,0,0,138.47,273.42Z"/>
        <path class="cls-5" d="M151.63,282.71q-1.76-1-3.48-2v2Z"/>
        <path class="cls-5" d="M172.13,243.63h-7.18v14.68a39.71,39.71,0,0,0,7.18,3Z"/>
        <path class="cls-5" d="M161.21,235.73l-.44-1.45-1.27-.84-11.13,8.29q.68,1.27,1.45,2.49Z"/>
        <path class="cls-5" d="M101,249.33l-17.4-7.95A1.43,1.43,0,1,0,82.4,244l18.94,8.65,16.6-12.38.23.21q-.44-1.66-.81-3.34Z"/>
        <path class="cls-5" d="M163,232.61a1.43,1.43,0,0,1-.29,2l-1.5,1.12,2.07,6.85c1.05-4.85,4.05-10.94,6.88-15.29-5,1.46-11.67,2.6-16.62,2.22l6,3.94,1.5-1.12A1.43,1.43,0,0,1,163,232.61Z"/>
        <path class="cls-5" d="M161.21,235.73l1.5-1.12a1.43,1.43,0,1,0-1.71-2.29l-1.5,1.12,1.27.84Z"/>
        <path class="cls-5" d="M72.3,234.5a1.43,1.43,0,1,0-2.86,0v48.2H72.3Z"/>
        <path class="cls-5" d="M148.15,284.13v-1.43h-9.68v1.43h-7.18v-1.43h-9.68v1.43h-7.18v-1.43h-9.68v1.43H97.57v-1.43H87.89v1.43H80.71v-1.43H72.3v1.43a1.43,1.43,0,0,1-1.43,1.43h86.69q-1.59-.67-3.15-1.43Z"/>
        <path class="cls-5" d="M69.45,284.13v-1.43H66.61a1.43,1.43,0,0,0,0,2.86h4.27A1.43,1.43,0,0,1,69.45,284.13Z"/>
        <path class="cls-5" d="M164.94,284.13v-1.43h-9.61v1.43h-.92q1.56.76,3.15,1.43h26.55a1.43,1.43,0,1,0,0-2.86h-12v1.43Z"/>
        <rect class="cls-5" x="80.71" y="282.71" width="7.18" height="1.43"/>
        <rect class="cls-5" x="97.57" y="282.71" width="7.18" height="1.43"/>
        <rect class="cls-5" x="114.43" y="282.71" width="7.18" height="1.43"/>
        <rect class="cls-5" x="131.29" y="282.71" width="7.18" height="1.43"/>
        <path class="cls-5" d="M148.15,282.71v1.43h6.26q-1.41-.68-2.78-1.43Z"/>
        <path class="cls-5" d="M154.41,284.13h.92v-1.43h-3.7Q153,283.45,154.41,284.13Z"/>
        <rect class="cls-5" x="164.94" y="282.71" width="7.18" height="1.43"/>
        <path class="cls-5" d="M72.3,284.13v-1.43H69.45v1.43a1.43,1.43,0,1,0,2.86,0Z"/>
      </g>
      <g id="Blue_Chart" data-name="Blue Chart">
        <g>
          <rect id="Bar" class="cls-4" x="123.4" y="31.46" width="14.46" height="120.77"/>
          <rect id="Bar-2" data-name="Bar" class="cls-4" x="164.43" y="61.05" width="14.46" height="95.18"/>
          <path id="Bar-3" data-name="Bar" class="cls-6" d="M186.66,155l12.77-12.77V79.75H185v76.4A5,5,0,0,0,186.66,155Z"/>
          <path id="Bar-4" data-name="Bar" class="cls-6" d="M143.93,67.51v94.55c7.07.17,14.46.17,14.46.17V67.51Z"/>
          <rect id="Bar-5" data-name="Bar" class="cls-4" x="102.81" y="60.37" width="14.46" height="75.86"/>
        </g>
        <polyline id="Line" class="cls-7" points="133.28 115.46 151.15 104.95 171.42 101.31 189.5 88.37"/>
        <g id="Circle">
          <path class="cls-8" d="M171.53,104.95a3.64,3.64,0,1,1,3.64-3.64A3.64,3.64,0,0,1,171.53,104.95Z"/>
        </g>
        <g id="Circle-2" data-name="Circle">
          <path class="cls-8" d="M151.15,108.58a3.64,3.64,0,1,1,3.64-3.64A3.64,3.64,0,0,1,151.15,108.58Z"/>
        </g>
        <g id="Circle-3" data-name="Circle">
          <path class="cls-9" d="M171.53,104.95a3.64,3.64,0,1,1,3.64-3.64A3.64,3.64,0,0,1,171.53,104.95Zm0-6.21a2.57,2.57,0,1,0,2.57,2.57A2.57,2.57,0,0,0,171.53,98.74Z"/>
        </g>
        <g id="Circle-4" data-name="Circle">
          <path class="cls-9" d="M151.15,108.58a3.64,3.64,0,1,1,3.64-3.64A3.64,3.64,0,0,1,151.15,108.58Zm0-6.21a2.57,2.57,0,1,0,2.57,2.57A2.57,2.57,0,0,0,151.15,102.38Z"/>
        </g>
        <g id="Circle-5" data-name="Circle">
          <path class="cls-9" d="M192.21,90.07a3.64,3.64,0,1,1,3.64-3.64A3.64,3.64,0,0,1,192.21,90.07Zm0-6.21a2.57,2.57,0,1,0,2.57,2.57A2.57,2.57,0,0,0,192.21,83.86Z"/>
        </g>
        <g id="Circle-6" data-name="Circle">
          <path class="cls-9" d="M130.63,120.66a3.64,3.64,0,1,1,3.64-3.64A3.64,3.64,0,0,1,130.63,120.66Zm0-6.21A2.57,2.57,0,1,0,133.2,117,2.57,2.57,0,0,0,130.63,114.45Z"/>
        </g>
      </g>
    </g>
  </g>
</svg>
